<mxfile host="65bd71144e">
    <diagram id="lV6X63ghPcbZG04vqODa" name="Page-1">
        <mxGraphModel dx="778" dy="893" grid="1" gridSize="10" guides="1" tooltips="1" connect="1" arrows="1" fold="1" page="1" pageScale="1" pageWidth="850" pageHeight="1100" background="#ffffff" math="0" shadow="0">
            <root>
                <mxCell id="0"/>
                <mxCell id="1" parent="0"/>
                <mxCell id="27" value="" style="rounded=1;whiteSpace=wrap;html=1;fillColor=#d5e8d4;strokeColor=#82b366;" vertex="1" parent="1">
                    <mxGeometry x="120" y="40" width="330" height="330" as="geometry"/>
                </mxCell>
                <mxCell id="15" value="Res. actor" style="ellipse;whiteSpace=wrap;html=1;aspect=fixed;fontSize=18;fillColor=#fff2cc;strokeColor=#d6b656;" parent="1" vertex="1">
                    <mxGeometry x="500" y="70" width="80" height="80" as="geometry"/>
                </mxCell>
                <mxCell id="21" style="edgeStyle=none;html=1;endArrow=none;endFill=0;" edge="1" parent="1" source="8">
                    <mxGeometry relative="1" as="geometry">
                        <mxPoint x="180" y="360" as="targetPoint"/>
                    </mxGeometry>
                </mxCell>
                <mxCell id="8" value="Req actor" style="ellipse;whiteSpace=wrap;html=1;aspect=fixed;fontSize=18;fillColor=#dae8fc;strokeColor=#6c8ebf;" parent="1" vertex="1">
                    <mxGeometry x="140" y="70" width="80" height="80" as="geometry"/>
                </mxCell>
                <mxCell id="20" value="Web actor" style="ellipse;whiteSpace=wrap;html=1;aspect=fixed;fontSize=18;fillColor=#f8cecc;strokeColor=#b85450;" vertex="1" parent="1">
                    <mxGeometry x="320" y="70" width="80" height="80" as="geometry"/>
                </mxCell>
                <mxCell id="22" style="edgeStyle=none;html=1;endArrow=none;endFill=0;" edge="1" parent="1">
                    <mxGeometry relative="1" as="geometry">
                        <mxPoint x="360" y="360" as="targetPoint"/>
                        <mxPoint x="359.5" y="150" as="sourcePoint"/>
                    </mxGeometry>
                </mxCell>
                <mxCell id="23" style="edgeStyle=none;html=1;endArrow=none;endFill=0;" edge="1" parent="1">
                    <mxGeometry relative="1" as="geometry">
                        <mxPoint x="540" y="360" as="targetPoint"/>
                        <mxPoint x="539.5" y="150" as="sourcePoint"/>
                    </mxGeometry>
                </mxCell>
                <mxCell id="24" value="Reservation request" style="endArrow=classic;html=1;" edge="1" parent="1">
                    <mxGeometry width="50" height="50" relative="1" as="geometry">
                        <mxPoint x="180" y="200" as="sourcePoint"/>
                        <mxPoint x="360" y="200" as="targetPoint"/>
                    </mxGeometry>
                </mxCell>
                <mxCell id="25" value="Reservation request" style="endArrow=classic;html=1;" edge="1" parent="1">
                    <mxGeometry width="50" height="50" relative="1" as="geometry">
                        <mxPoint x="360" y="240" as="sourcePoint"/>
                        <mxPoint x="540" y="240" as="targetPoint"/>
                    </mxGeometry>
                </mxCell>
                <mxCell id="28" value="Confirmation" style="endArrow=classic;html=1;" edge="1" parent="1">
                    <mxGeometry width="50" height="50" relative="1" as="geometry">
                        <mxPoint x="540" y="280" as="sourcePoint"/>
                        <mxPoint x="180" y="280" as="targetPoint"/>
                    </mxGeometry>
                </mxCell>
                <mxCell id="29" value="" style="rounded=1;whiteSpace=wrap;html=1;fillColor=#d5e8d4;strokeColor=#82b366;" vertex="1" parent="1">
                    <mxGeometry x="120" y="420" width="330" height="330" as="geometry"/>
                </mxCell>
                <mxCell id="30" value="Res. actor" style="ellipse;whiteSpace=wrap;html=1;aspect=fixed;fontSize=18;fillColor=#fff2cc;strokeColor=#d6b656;" vertex="1" parent="1">
                    <mxGeometry x="500" y="450" width="80" height="80" as="geometry"/>
                </mxCell>
                <mxCell id="31" style="edgeStyle=none;html=1;endArrow=none;endFill=0;" edge="1" parent="1" source="32">
                    <mxGeometry relative="1" as="geometry">
                        <mxPoint x="180" y="740" as="targetPoint"/>
                    </mxGeometry>
                </mxCell>
                <mxCell id="32" value="Req actor" style="ellipse;whiteSpace=wrap;html=1;aspect=fixed;fontSize=18;fillColor=#dae8fc;strokeColor=#6c8ebf;" vertex="1" parent="1">
                    <mxGeometry x="140" y="450" width="80" height="80" as="geometry"/>
                </mxCell>
                <mxCell id="33" value="Web actor" style="ellipse;whiteSpace=wrap;html=1;aspect=fixed;fontSize=18;fillColor=#f8cecc;strokeColor=#b85450;" vertex="1" parent="1">
                    <mxGeometry x="320" y="450" width="80" height="80" as="geometry"/>
                </mxCell>
                <mxCell id="34" style="edgeStyle=none;html=1;endArrow=none;endFill=0;" edge="1" parent="1">
                    <mxGeometry relative="1" as="geometry">
                        <mxPoint x="360" y="740" as="targetPoint"/>
                        <mxPoint x="359.5" y="530" as="sourcePoint"/>
                    </mxGeometry>
                </mxCell>
                <mxCell id="35" style="edgeStyle=none;html=1;endArrow=none;endFill=0;" edge="1" parent="1">
                    <mxGeometry relative="1" as="geometry">
                        <mxPoint x="540" y="740" as="targetPoint"/>
                        <mxPoint x="539.5" y="530" as="sourcePoint"/>
                    </mxGeometry>
                </mxCell>
                <mxCell id="36" value="Reservation request" style="endArrow=classic;html=1;" edge="1" parent="1">
                    <mxGeometry width="50" height="50" relative="1" as="geometry">
                        <mxPoint x="180" y="580" as="sourcePoint"/>
                        <mxPoint x="360" y="580" as="targetPoint"/>
                    </mxGeometry>
                </mxCell>
                <mxCell id="37" value="Reservation request" style="endArrow=classic;html=1;" edge="1" parent="1">
                    <mxGeometry width="50" height="50" relative="1" as="geometry">
                        <mxPoint x="360" y="620" as="sourcePoint"/>
                        <mxPoint x="540" y="620" as="targetPoint"/>
                    </mxGeometry>
                </mxCell>
                <mxCell id="38" value="Confirmation" style="endArrow=classic;html=1;" edge="1" parent="1">
                    <mxGeometry width="50" height="50" relative="1" as="geometry">
                        <mxPoint x="540" y="660" as="sourcePoint"/>
                        <mxPoint x="180" y="660" as="targetPoint"/>
                    </mxGeometry>
                </mxCell>
                <mxCell id="39" value="Timestamp on next availability" style="endArrow=classic;html=1;" edge="1" parent="1">
                    <mxGeometry width="50" height="50" relative="1" as="geometry">
                        <mxPoint x="540" y="700" as="sourcePoint"/>
                        <mxPoint x="360" y="700" as="targetPoint"/>
                    </mxGeometry>
                </mxCell>
                <mxCell id="40" value="" style="rounded=1;whiteSpace=wrap;html=1;fillColor=#d5e8d4;strokeColor=#82b366;" vertex="1" parent="1">
                    <mxGeometry x="690" y="40" width="330" height="330" as="geometry"/>
                </mxCell>
                <mxCell id="41" value="Res. actor" style="ellipse;whiteSpace=wrap;html=1;aspect=fixed;fontSize=18;fillColor=#fff2cc;strokeColor=#d6b656;" vertex="1" parent="1">
                    <mxGeometry x="1070" y="70" width="80" height="80" as="geometry"/>
                </mxCell>
                <mxCell id="42" style="edgeStyle=none;html=1;endArrow=none;endFill=0;" edge="1" parent="1" source="43">
                    <mxGeometry relative="1" as="geometry">
                        <mxPoint x="750" y="360" as="targetPoint"/>
                    </mxGeometry>
                </mxCell>
                <mxCell id="43" value="Req actor" style="ellipse;whiteSpace=wrap;html=1;aspect=fixed;fontSize=18;fillColor=#dae8fc;strokeColor=#6c8ebf;" vertex="1" parent="1">
                    <mxGeometry x="710" y="70" width="80" height="80" as="geometry"/>
                </mxCell>
                <mxCell id="44" value="Web actor" style="ellipse;whiteSpace=wrap;html=1;aspect=fixed;fontSize=18;fillColor=#f8cecc;strokeColor=#b85450;" vertex="1" parent="1">
                    <mxGeometry x="890" y="70" width="80" height="80" as="geometry"/>
                </mxCell>
                <mxCell id="45" style="edgeStyle=none;html=1;endArrow=none;endFill=0;" edge="1" parent="1">
                    <mxGeometry relative="1" as="geometry">
                        <mxPoint x="930" y="360" as="targetPoint"/>
                        <mxPoint x="929.5" y="150" as="sourcePoint"/>
                    </mxGeometry>
                </mxCell>
                <mxCell id="46" style="edgeStyle=none;html=1;endArrow=none;endFill=0;" edge="1" parent="1">
                    <mxGeometry relative="1" as="geometry">
                        <mxPoint x="1110" y="360" as="targetPoint"/>
                        <mxPoint x="1109.5" y="150" as="sourcePoint"/>
                    </mxGeometry>
                </mxCell>
                <mxCell id="47" value="Reservation request" style="endArrow=classic;html=1;" edge="1" parent="1">
                    <mxGeometry width="50" height="50" relative="1" as="geometry">
                        <mxPoint x="750" y="200" as="sourcePoint"/>
                        <mxPoint x="930" y="200" as="targetPoint"/>
                    </mxGeometry>
                </mxCell>
                <mxCell id="49" value="Declined" style="endArrow=classic;html=1;" edge="1" parent="1">
                    <mxGeometry width="50" height="50" relative="1" as="geometry">
                        <mxPoint x="930" y="240" as="sourcePoint"/>
                        <mxPoint x="750" y="240" as="targetPoint"/>
                    </mxGeometry>
                </mxCell>
                <mxCell id="51" value="&lt;span style=&quot;font-size: 18px&quot;&gt;Items available&lt;/span&gt;" style="text;html=1;strokeColor=none;fillColor=none;align=center;verticalAlign=middle;whiteSpace=wrap;rounded=0;" vertex="1" parent="1">
                    <mxGeometry x="230" y="10" width="250" height="30" as="geometry"/>
                </mxCell>
                <mxCell id="52" value="&lt;span style=&quot;font-size: 18px&quot;&gt;Limit reached&lt;/span&gt;" style="text;html=1;strokeColor=none;fillColor=none;align=center;verticalAlign=middle;whiteSpace=wrap;rounded=0;" vertex="1" parent="1">
                    <mxGeometry x="235" y="390" width="250" height="30" as="geometry"/>
                </mxCell>
                <mxCell id="53" value="&lt;span style=&quot;font-size: 18px&quot;&gt;Items not available&lt;/span&gt;" style="text;html=1;strokeColor=none;fillColor=none;align=center;verticalAlign=middle;whiteSpace=wrap;rounded=0;" vertex="1" parent="1">
                    <mxGeometry x="805" y="10" width="250" height="30" as="geometry"/>
                </mxCell>
            </root>
        </mxGraphModel>
    </diagram>
</mxfile>